<svg xmlns="http://www.w3.org/2000/svg" width="512" height="512" viewBox="0 0 512 512" fill="none">
  <rect width="512" height="512" rx="128" fill="#8b5cf6"/>
  <path d="M256 96C167.632 96 96 167.632 96 256C96 344.368 167.632 416 256 416C344.368 416 416 344.368 416 256C416 167.632 344.368 96 256 96ZM256 128C326.688 128 384 185.312 384 256C384 326.688 326.688 384 256 384C185.312 384 128 326.688 128 256C128 185.312 185.312 128 256 128Z" fill="#ffffff"/>
  <path d="M256 160C202.976 160 160 202.976 160 256C160 309.024 202.976 352 256 352C309.024 352 352 309.024 352 256C352 202.976 309.024 160 256 160ZM256 192C291.344 192 320 220.656 320 256C320 291.344 291.344 320 256 320C220.656 320 192 291.344 192 256C192 220.656 220.656 192 256 192Z" fill="#ffffff"/>
  <circle cx="256" cy="256" r="32" fill="#ffffff"/>
  <path d="M256 64L288 128H224L256 64Z" fill="#f59e0b"/>
  <path d="M256 448L224 384H288L256 448Z" fill="#f59e0b"/>
  <path d="M64 256L128 224V288L64 256Z" fill="#f59e0b"/>
  <path d="M448 256L384 288V224L448 256Z" fill="#f59e0b"/>
</svg>